<svg xmlns="http://www.w3.org/2000/svg"><symbol id="soc-facebook" viewBox="0 0 50 50"><path d="M30 26l1-5h-5v-4c0-1.5.8-2 3-2h2v-5h-4c-4 0-7 2.4-7 7v4h-5v5h5v14h6V26h4z"/><path d="M25 1C11.7 1 1 11.7 1 25s10.7 24 24 24 24-10.7 24-24S38.3 1 25 1zm0 43C14.5 44 6 35.5 6 25S14.5 6 25 6s19 8.5 19 19-8.5 19-19 19z"/></symbol><symbol id="soc-instagram" viewBox="0 0 50 50"><path d="M34 12.6H15.6c-1.6 0-3 1.3-3 3v19c0 1.5 1.4 2.8 3 2.8h19c1.5 0 3-1.3 3-3v-19c-.2-1.4-2-2.7-3.4-2.8zm-9 8c2.5 0 4.5 2 4.5 4.4 0 2.5-2 4.5-4.5 4.5s-4.5-2-4.5-4.5 2-4.5 4.5-4.5zm9 11.8c0 1-.6 1.6-1.5 1.6H17.6c-1 0-1.6-.7-1.6-1.6V23h2c-.3.6-.4 1.2-.4 2 0 4 3.3 7.4 7.4 7.4s7.4-3.3 7.4-7.4c0-.7 0-1.4-.3-2h2v9.4zm0-15.6v2.5c0 .4-.3.8-.7.8h-2.5c-.4 0-.8-.3-.8-.7v-2.5c0-.5.4-.8.8-.8h2.5c.4 0 .8.3.8.8z"/><path d="M25 1C11.7 1 1 11.7 1 25s10.7 24 24 24 24-10.7 24-24S38.3 1 25 1zm0 43C14.5 44 6 35.5 6 25S14.5 6 25 6s19 8.5 19 19-8.5 19-19 19z"/></symbol><symbol id="soc-vk" viewBox="0 0 50 50"><path d="M26 34c1 0 1-1.4 1-2 0-1 1-2 2-2s2.7 1.7 4 3c1 1 1 1 2 1h3s2 0 2-2c0-.6-.7-1.7-3-4-2-2-3-1 0-5 1.8-2.5 3.2-4.7 3-5.3-.2-.6-5.3-1.6-6-.7-2 3-2.4 3.7-3 5-1 2-1 3-2 3s-1-2-1-3c0-3.3.5-5.6-1-6h-3c-1.6 0-3 1-3 1s-1.2 1-1 1c.3 0 2-.4 2 1v2s0 4-1 4-3-4-5-7c-.8-1.2-1-1-2-1h-3c-1 0-1 .6-1 1 2 5 3.4 8 7.2 12 3.5 3.7 5.8 4 7.8 4h1z"/><path d="M25 1C11.7 1 1 11.7 1 25s10.7 24 24 24 24-10.7 24-24S38.3 1 25 1zm0 43C14.5 44 6 35.5 6 25S14.5 6 25 6s19 8.5 19 19-8.5 19-19 19z"/></symbol></svg>