<?xml version="1.0" encoding="UTF-8"?>
<svg width="54px" height="42px" viewBox="0 0 54 42" version="1.1" xmlns="http://www.w3.org/2000/svg" xmlns:xlink="http://www.w3.org/1999/xlink">
    <!-- Generator: Sketch 49 (51002) - http://www.bohemiancoding.com/sketch -->
    <title>logo</title>
    <desc>Created with Sketch.</desc>
    <defs>
        <linearGradient x1="3.061617e-15%" y1="50%" x2="100%" y2="50%" id="linearGradient-1">
            <stop stop-color="#DA2B69" offset="0%"></stop>
            <stop stop-color="#5A3A89" offset="100%"></stop>
        </linearGradient>
    </defs>
    <g id="Page-1" stroke="none" stroke-width="1" fill="none" fill-rule="evenodd">
        <g id="rating" transform="translate(-28.000000, 0.000000)" fill-rule="nonzero">
            <g id="logo" transform="translate(28.000000, 0.000000)">
                <path d="M19.9456329,2.54543647 C5.57602862,8.03768732 -2.93651384,20.6282157 0.933916124,30.6683291 C4.80314436,40.7082708 19.5888907,44.3950077 33.9581517,38.9036152 C48.3284427,33.4111927 56.8399551,20.8201492 52.9707268,10.7808943 C50.317478,3.89738306 42.5319824,0.000171675758 33.2685301,5.08092924e-14 C29.0205852,-0.000343351516 24.4631088,0.818893366 19.9456329,2.54543647 Z" id="Fill-1" fill="url(#linearGradient-1)"></path>
                <path d="M44.1349018,25.341196 C44.1349018,26.3693621 43.3242488,27.2037063 42.3244092,27.2037063 C41.3243979,27.2037063 40.5139167,26.3693621 40.5139167,25.341196 C40.5139167,24.3130299 41.3243979,23.4790291 42.3244092,23.4790291 C43.3244205,23.4790291 44.1349018,24.3126865 44.1349018,25.341196" id="Fill-3" fill="#FFE411"></path>
                <path d="M37.6922539,15.8701534 C37.6922539,16.7946274 36.9794562,17.4687981 36.0790168,17.4943778 C36.0072563,17.4988414 35.9648524,17.5019315 35.786138,17.5019315 C35.5075082,17.5012448 31.6345031,17.5041633 31.6345031,17.5041633 L31.6345031,25.172061 L31.6226575,25.4283729 C31.5867772,26.3940491 30.9464267,27.1315681 30.0111371,27.1315681 C29.1065776,27.1315681 28.3953249,26.373448 28.3697452,25.4324932 L28.358758,25.18425 L28.3575562,17.4969529 L24.2054064,17.4960945 C24.2054064,17.4960945 20.6419326,25.536357 20.5298284,25.7669175 C20.4264796,25.9791088 20.3334313,26.147351 20.2860488,26.2185965 C19.9159159,26.7739675 19.5840666,27.1272763 18.8922133,27.1272763 C18.2235362,27.1272763 17.8230167,26.7761993 17.5016397,26.2282103 C17.3964024,26.0488091 17.3390627,25.9421985 17.2786329,25.8197937 C17.2185463,25.6975605 14.6442684,19.8765506 14.6442684,19.8765506 L12.1132527,25.6015938 C12.1132527,25.6015938 11.9527358,25.9681215 11.8663829,26.1217713 C11.4844043,26.8016073 10.9872314,27.1272763 10.3757223,27.1272763 C9.78601607,27.1272763 9.28455118,26.7739675 8.93089912,26.1270933 C8.85896698,25.9955897 8.78428802,25.8633993 8.71407264,25.6996206 C8.05071751,24.2056982 5.4149796,18.2813395 4.8214965,16.9463888 C4.75059441,16.7867303 4.73703203,16.749305 4.70578704,16.6689607 C4.37256439,15.8191657 4.56501292,15.3183876 4.7081905,15.0675693 C4.99420231,14.5669628 5.54991674,14.2237829 6.13910794,14.2579464 C6.94358055,14.3044705 7.36109599,14.7645616 7.71079951,15.5243985 L7.82994249,15.7580492 L10.3734905,21.4915045 C10.3734905,21.4915045 12.8203851,15.9611416 12.91309,15.7633711 C13.0056232,15.565429 13.070345,15.4306635 13.070345,15.4306635 C13.5338695,14.5099664 14.0300125,14.2569163 14.6415215,14.2569163 C15.2954345,14.2569163 15.8106335,14.6090233 16.2200801,15.4649987 C16.2200801,15.4649987 16.3038579,15.629464 16.3888374,15.8246594 C16.4777655,16.0282668 18.8937584,21.4947663 18.8937584,21.4947663 L21.5633164,15.4656854 C21.5633164,15.4656854 21.6240897,15.3223361 21.7221165,15.1496303 C21.9931925,14.60971 22.4642708,14.2709938 23.115437,14.2598348 C23.2354383,14.257603 23.2677134,14.2567447 23.4843682,14.2567447 C25.3338311,14.256573 34.1018271,14.2558863 35.786138,14.2558863 C35.962449,14.2558863 36.089489,14.2727105 36.0944676,14.2728822 C37.0098428,14.3192346 37.6922539,14.943276 37.6922539,15.8701534 Z M48.9883471,24.3394336 C49.1960748,24.7287942 49.3826863,25.0766093 49.3826863,25.4937814 C49.3826863,26.4199721 48.6731504,27.1229844 47.7766596,27.1250445 C47.1840349,27.1253878 46.6779348,26.7537098 46.3057417,26.1652053 L46.191234,25.982714 L42.3465554,19.084267 L38.4980999,25.952499 L38.3549223,26.1803128 C37.9777507,26.7580017 37.4874447,27.1253878 36.8946483,27.1250445 C35.9981575,27.1229844 35.2903384,26.4131051 35.2903384,25.4867427 C35.2903384,25.0697423 35.4510269,24.7641594 35.660643,24.3699919 L35.8182413,24.094109 L40.7681685,15.4370155 L40.9341789,15.1767551 C41.2777021,14.6193239 41.7276643,14.2586331 42.346212,14.2452424 L42.3465554,14.2452424 C42.9651031,14.2586331 43.4001295,14.6042164 43.7436527,15.1461968 L43.9034828,15.4009636 L48.8860284,24.1516203 L48.9883471,24.3394336 Z" id="Fill-5" fill="#FEFEFE"></path>
            </g>
        </g>
    </g>
</svg>